<svg xmlns="http://www.w3.org/2000/svg" xmlns:svg="http://www.w3.org/2000/svg" id="svg5360" width="650" height="350" version="1.0"><defs id="defs5362"><marker id="Arrow1Mstart" orient="auto" refX="0" refY="0" style="overflow:visible"><path id="path4130" d="M 0,0 5,-5 -12.5,0 5,5 0,0 z" transform="matrix(0.4,0,0,0.4,4,0)" style="fill-rule:evenodd;stroke:#000;stroke-width:1pt;marker-start:none"/></marker><marker id="Arrow2Mstart" orient="auto" refX="0" refY="0" style="overflow:visible"><path id="path4148" d="M 8.7185878,4.0337352 -2.2072895,0.01601326 8.7185884,-4.0017078 c -1.7454984,2.3720609 -1.7354408,5.6174519 -6e-7,8.035443 z" transform="scale(0.6,0.6)" style="font-size:12px;fill-rule:evenodd;stroke-width:.625;stroke-linejoin:round"/></marker><marker id="StopL" orient="auto" refX="0" refY="0" style="overflow:visible"><path id="path4294" d="M 0,5.65 0,-5.65" transform="scale(0.8,0.8)" style="fill:none;stroke:#000;stroke-width:1pt"/></marker><marker id="Arrow2Mend" orient="auto" refX="0" refY="0" style="overflow:visible"><path id="path4151" d="M 8.7185878,4.0337352 -2.2072895,0.01601326 8.7185884,-4.0017078 c -1.7454984,2.3720609 -1.7354408,5.6174519 -6e-7,8.035443 z" transform="scale(-0.6,-0.6)" style="font-size:12px;fill-rule:evenodd;stroke-width:.625;stroke-linejoin:round"/></marker><marker style="overflow:visible" id="DistanceEnd" orient="auto" refX="0" refY="0"><g id="g4180"><path style="fill:none;stroke:#fff;stroke-width:1.14999998;stroke-linecap:square" id="path2316" d="M 0,0 -2,0"/><path style="fill:#000;fill-rule:evenodd;stroke:none" id="path2312" d="M 0,0 -13,4 -9,0 -13,-4 0,0 z"/><path style="fill:none;stroke:#000;stroke-width:1;stroke-linecap:square" id="path2314" d="M 0,-4 0,40"/></g></marker><marker id="SquareM" orient="auto" refX="0" refY="0" style="overflow:visible"><path id="path4198" d="M -5,-5 -5,5 5,5 5,-5 -5,-5 z" transform="scale(0.4,0.4)" style="fill-rule:evenodd;stroke:#000;stroke-width:1pt;marker-start:none"/></marker><marker id="Arrow2Lend" orient="auto" refX="0" refY="0" style="overflow:visible"><path id="path4145" d="M 8.7185878,4.0337352 -2.2072895,0.01601326 8.7185884,-4.0017078 c -1.7454984,2.3720609 -1.7354408,5.6174519 -6e-7,8.035443 z" transform="matrix(-1.1,0,0,-1.1,-1.1,0)" style="font-size:12px;fill-rule:evenodd;stroke-width:.625;stroke-linejoin:round"/></marker><marker style="overflow:visible" id="InfiniteLineStart" orient="auto" refX="0" refY="0"><g id="g4501" transform="translate(-13,0)" style="fill:#000"><circle id="circle4503" cx="3" cy="0" r=".8" d="M 3.8,0 C 3.8,0.44182781 3.4418278,0.80000001 3,0.80000001 2.5581722,0.80000001 2.2,0.44182781 2.2,0 c 0,-0.44182781 0.3581722,-0.80000001 0.8,-0.80000001 0.4418278,0 0.8,0.3581722 0.8,0.80000001 z"/><circle id="circle4505" cx="6.5" cy="0" r=".8" d="M 7.3,0 C 7.3,0.44182781 6.9418278,0.80000001 6.5,0.80000001 6.0581722,0.80000001 5.7,0.44182781 5.7,0 c 0,-0.44182781 0.3581722,-0.80000001 0.8,-0.80000001 0.4418278,0 0.8,0.3581722 0.8,0.80000001 z"/><circle id="circle4507" cx="10" cy="0" r=".8" d="M 10.8,0 C 10.8,0.44182781 10.441828,0.80000001 10,0.80000001 9.5581722,0.80000001 9.2,0.44182781 9.2,0 c 0,-0.44182781 0.3581722,-0.80000001 0.8,-0.80000001 0.441828,0 0.8,0.3581722 0.8,0.80000001 z"/></g></marker><marker id="TriangleOutL" orient="auto" refX="0" refY="0" style="overflow:visible"><path id="path4129" d="m 5.77,0 -8.65,5 0,-10 8.65,5 z" transform="scale(0.8,0.8)" style="fill-rule:evenodd;stroke:#000;stroke-width:1pt"/></marker><marker id="TriangleOutM-9G" orient="auto" refX="0" refY="0" style="overflow:visible"><path id="path5158" d="m 5.77,0 -8.65,5 0,-10 8.65,5 z" transform="scale(0.4,0.4)" style="fill:#d7191c;fill-rule:evenodd;stroke:#d7191c;stroke-width:1pt"/></marker><marker id="TriangleOutM-9L" orient="auto" refX="0" refY="0" style="overflow:visible"><path id="path5161" d="m 5.77,0 -8.65,5 0,-10 8.65,5 z" transform="scale(0.4,0.4)" style="fill:#d7191c;fill-rule:evenodd;stroke:#d7191c;stroke-width:1pt"/></marker><marker id="TriangleOutM-9x" orient="auto" refX="0" refY="0" style="overflow:visible"><path id="path5164" d="m 5.77,0 -8.65,5 0,-10 8.65,5 z" transform="scale(0.4,0.4)" style="fill:#d7191c;fill-rule:evenodd;stroke:#d7191c;stroke-width:1pt"/></marker><marker id="StopL-8" orient="auto" refX="0" refY="0" style="overflow:visible"><path id="path4294-2" d="M 0,5.65 0,-5.65" transform="scale(0.8,0.8)" style="fill:none;stroke:#000;stroke-width:1pt"/></marker><marker id="Arrow2MendC" orient="auto" refX="0" refY="0" style="overflow:visible"><path id="path10996" d="M 8.7185878,4.0337352 -2.2072895,0.01601326 8.7185884,-4.0017078 c -1.7454984,2.3720609 -1.7354408,5.6174519 -6e-7,8.035443 z" transform="scale(-0.6,-0.6)" style="stroke-linejoin:round;font-size:12px;fill-rule:evenodd;stroke:red;stroke-width:.625;fill:red"/></marker><marker id="Arrow2MendCV" orient="auto" refX="0" refY="0" style="overflow:visible"><path id="path11185" d="M 8.7185878,4.0337352 -2.2072895,0.01601326 8.7185884,-4.0017078 c -1.7454984,2.3720609 -1.7354408,5.6174519 -6e-7,8.035443 z" transform="scale(-0.6,-0.6)" style="stroke-linejoin:round;font-size:12px;fill-rule:evenodd;stroke:maroon;stroke-width:.625;fill:maroon"/></marker><marker id="Arrow2MendCVK" orient="auto" refX="0" refY="0" style="overflow:visible"><path id="path11506" d="M 8.7185878,4.0337352 -2.2072895,0.01601326 8.7185884,-4.0017078 c -1.7454984,2.3720609 -1.7354408,5.6174519 -6e-7,8.035443 z" transform="scale(-0.6,-0.6)" style="stroke-linejoin:round;font-size:12px;fill-rule:evenodd;stroke:#d40000;stroke-width:.625;fill:#d40000"/></marker></defs><metadata id="metadata5365"/><g id="layer1" transform="translate(79.737549,-360.66832)"><path style="fill:none;stroke:#000;stroke-width:3;stroke-linecap:butt;stroke-linejoin:miter;stroke-miterlimit:4;stroke-opacity:1;stroke-dasharray:none;marker-end:url(#Arrow2Mend);marker-start:url(#Arrow2Mstart)" id="path7143" d="m -19.737549,630.66808 565.591809,0"/><text style="font-size:40px;font-style:normal;font-weight:400;line-height:125%;letter-spacing:0;word-spacing:0;fill:#000;fill-opacity:1;stroke:none;font-family:Sans" id="text8232" x="488.262" y="657.184" xml:space="preserve"><tspan id="tspan8234" x="488.262" y="657.184" style="font-size:24px;font-style:normal;font-variant:normal;font-weight:400;font-stretch:normal;text-align:center;text-anchor:middle;font-family:Nimbus Sans L;-inkscape-font-specification:Nimbus Sans L">time</tspan></text><text id="text4185" x="-48.895" y="596.913" xml:space="preserve" style="font-size:40px;font-style:normal;font-weight:400;line-height:125%;letter-spacing:0;word-spacing:0;fill:#000;fill-opacity:1;stroke:none;font-family:Sans"><tspan style="font-size:24px;font-style:normal;font-variant:normal;font-weight:400;font-stretch:normal;text-align:center;text-anchor:middle;font-family:Nimbus Sans L;-inkscape-font-specification:Nimbus Sans L" id="tspan4187" x="-48.895" y="596.913">C<tspan id="tspan4189" style="font-size:65.00091553%;baseline-shift:sub">old</tspan></tspan></text><path id="path4195" d="m -19.73755,590.66832 210.00001,0" style="fill:none;stroke:#000;stroke-width:3;stroke-linecap:butt;stroke-linejoin:miter;stroke-miterlimit:4;stroke-opacity:1;stroke-dasharray:none;stroke-dashoffset:0;marker-start:none"/><path id="path4217" d="m 93.364841,550.66832 96.897609,0" style="fill:none;stroke:#000;stroke-width:3;stroke-linecap:butt;stroke-linejoin:miter;stroke-miterlimit:4;stroke-opacity:1;stroke-dasharray:9,9;stroke-dashoffset:0"/><path id="path4209" d="m 110.75653,223.96837 c 0,4.63402 -3.75662,8.39065 -8.39065,8.39065 -4.634023,0 -8.390644,-3.75663 -8.390644,-8.39065 0,-4.63403 3.756621,-8.39065 8.390644,-8.39065 4.63403,0 8.39065,3.75662 8.39065,8.39065 z" transform="matrix(0.59180331,0,0,0.59180331,30.163541,418.1231)" style="color:#000;fill:#000;fill-opacity:1;fill-rule:nonzero;stroke:none;stroke-width:3;marker:none;visibility:visible;display:inline;overflow:visible;enable-background:accumulate"/><text style="font-size:40px;font-style:normal;font-weight:400;line-height:125%;letter-spacing:0;word-spacing:0;fill:#000;fill-opacity:1;stroke:none;font-family:Sans" id="text4211" x="40.262" y="555.9" xml:space="preserve"><tspan id="tspan4213" x="40.262" y="555.9" style="font-size:24px;font-style:normal;font-variant:normal;font-weight:400;font-stretch:normal;text-align:center;text-anchor:middle;font-family:Nimbus Sans L;-inkscape-font-specification:Nimbus Sans L">C<tspan style="font-size:65.00091553%;baseline-shift:sub" id="tspan4215">old,new</tspan></tspan></text><path style="fill:none;stroke:#000;stroke-width:3;stroke-linecap:butt;stroke-linejoin:miter;stroke-miterlimit:4;stroke-opacity:1;stroke-dasharray:none;stroke-dashoffset:0" id="path4219" d="m 190.26245,550.66832 150,0"/><path id="path4221" d="m 190.26245,550.66832 0,80" style="fill:none;stroke:#000;stroke-width:2;stroke-linecap:butt;stroke-linejoin:miter;stroke-miterlimit:4;stroke-opacity:1;stroke-dasharray:2,4;stroke-dashoffset:0"/><text id="text4225" x="224.024" y="516.913" xml:space="preserve" style="font-size:40px;font-style:normal;font-weight:400;line-height:125%;letter-spacing:0;word-spacing:0;fill:#000;fill-opacity:1;stroke:none;font-family:Sans"><tspan style="font-size:24px;font-style:normal;font-variant:normal;font-weight:400;font-stretch:normal;text-align:center;text-anchor:middle;font-family:Nimbus Sans L;-inkscape-font-specification:Nimbus Sans L" id="tspan4227" x="224.024" y="516.913">C<tspan id="tspan4229" style="font-size:65.00091553%;baseline-shift:sub">new</tspan></tspan></text><path style="fill:none;stroke:#000;stroke-width:3;stroke-linecap:butt;stroke-linejoin:miter;stroke-miterlimit:4;stroke-opacity:1;stroke-dasharray:9,9;stroke-dashoffset:0" id="path4231" d="m 261.66818,510.66832 77.21895,0"/><path style="color:#000;fill:#000;fill-opacity:1;fill-rule:nonzero;stroke:none;stroke-width:3;marker:none;visibility:visible;display:inline;overflow:visible;enable-background:accumulate" id="path4223" d="m 110.75653,223.96837 c 0,4.63402 -3.75662,8.39065 -8.39065,8.39065 -4.634023,0 -8.390644,-3.75663 -8.390644,-8.39065 0,-4.63403 3.756621,-8.39065 8.390644,-8.39065 4.63403,0 8.39065,3.75662 8.39065,8.39065 z" transform="matrix(0.59180331,0,0,0.59180331,200.4487,378.1231)"/><path id="path4233" d="m 340.26245,510.66832 210.00001,0" style="fill:none;stroke:#000;stroke-width:3;stroke-linecap:butt;stroke-linejoin:miter;stroke-miterlimit:4;stroke-opacity:1;stroke-dasharray:none;stroke-dashoffset:0"/><path style="fill:none;stroke:#000;stroke-width:2;stroke-linecap:butt;stroke-linejoin:miter;stroke-miterlimit:4;stroke-opacity:1;stroke-dasharray:2,4;stroke-dashoffset:0" id="path4235" d="m 340.26245,510.66832 0,120"/><text style="font-size:40px;font-style:normal;font-weight:400;line-height:125%;letter-spacing:0;word-spacing:0;fill:#000;fill-opacity:1;stroke:none;font-family:Sans" id="text4237" x="189.77" y="663.987" xml:space="preserve"><tspan id="tspan4243" x="189.77" y="663.987" style="font-size:24px;font-style:normal;font-variant:normal;font-weight:400;font-stretch:normal;text-align:center;text-anchor:middle;font-family:Nimbus Sans L;-inkscape-font-specification:Nimbus Sans L">C<tspan style="font-size:65.00091553%;baseline-shift:sub" id="tspan4241">old,new</tspan> entry</tspan><tspan style="font-size:24px;font-style:normal;font-variant:normal;font-weight:400;font-stretch:normal;text-align:center;text-anchor:middle;font-family:Nimbus Sans L;-inkscape-font-specification:Nimbus Sans L" id="tspan5064" x="189.77" y="693.987">committed</tspan></text><text id="text4245" x="340.667" y="663.865" xml:space="preserve" style="font-size:40px;font-style:normal;font-weight:400;line-height:125%;letter-spacing:0;word-spacing:0;fill:#000;fill-opacity:1;stroke:none;font-family:Sans"><tspan style="font-size:24px;font-style:normal;font-variant:normal;font-weight:400;font-stretch:normal;text-align:center;text-anchor:middle;font-family:Nimbus Sans L;-inkscape-font-specification:Nimbus Sans L" id="tspan4251" x="340.667" y="663.865">C<tspan id="tspan4249" style="font-size:65.00091553%;baseline-shift:sub">new</tspan> entry</tspan><tspan style="font-size:24px;font-style:normal;font-variant:normal;font-weight:400;font-stretch:normal;text-align:center;text-anchor:middle;font-family:Nimbus Sans L;-inkscape-font-specification:Nimbus Sans L" id="tspan5074" x="340.667" y="693.865">committed</tspan></text><path id="path4195-7" d="m -19.737548,450.66832 209.999988,0" style="fill:none;stroke:#000;stroke-width:3;stroke-linecap:butt;stroke-linejoin:miter;stroke-miterlimit:4;stroke-opacity:1;stroke-dasharray:none;stroke-dashoffset:0;marker-start:none;marker-end:url(#StopL)"/><text id="text5036-4" x="77.586" y="408.842" xml:space="preserve" style="font-size:40px;font-style:normal;font-weight:400;line-height:125%;letter-spacing:0;word-spacing:0;fill:#000;fill-opacity:1;stroke:none;font-family:Sans"><tspan style="font-size:24px;font-style:normal;font-variant:normal;font-weight:400;font-stretch:normal;text-align:center;text-anchor:middle;font-family:Nimbus Sans L;-inkscape-font-specification:Nimbus Sans L" id="tspan4048-4" x="77.586" y="408.842">C<tspan id="tspan5040-9" style="font-size:65.00091553%;baseline-shift:sub">old </tspan>can make</tspan><tspan style="font-size:24px;font-style:normal;font-variant:normal;font-weight:400;font-stretch:normal;text-align:center;text-anchor:middle;font-family:Nimbus Sans L;-inkscape-font-specification:Nimbus Sans L" id="tspan7287" x="77.586" y="438.842">decisions alone</tspan></text><flowRoot id="flowRoot7289" transform="translate(-79.737549,335.66832)" xml:space="preserve" style="font-size:40px;font-style:normal;font-weight:400;line-height:125%;letter-spacing:0;word-spacing:0;fill:#000;fill-opacity:1;stroke:none;font-family:Sans"><flowRegion id="flowRegion7291"><rect id="rect7293" width="198.721" height="70.062" x="59.871" y="15.774"/></flowRegion><flowPara id="flowPara7295"/></flowRoot><path id="path4195-7-4" d="m 260.26245,450.66832 290,0" style="fill:none;stroke:#000;stroke-width:3;stroke-linecap:butt;stroke-linejoin:miter;stroke-miterlimit:4;stroke-opacity:1;stroke-dasharray:none;stroke-dashoffset:0;marker-start:url(#StopL-8);marker-end:none"/><text id="text5036-4-5" x="371.586" y="408.842" xml:space="preserve" style="font-size:40px;font-style:normal;font-weight:400;line-height:125%;letter-spacing:0;word-spacing:0;fill:#000;fill-opacity:1;stroke:none;font-family:Sans"><tspan style="font-size:24px;font-style:normal;font-variant:normal;font-weight:400;font-stretch:normal;text-align:center;text-anchor:middle;font-family:Nimbus Sans L;-inkscape-font-specification:Nimbus Sans L" id="tspan4048-4-5" x="371.586" y="408.842">C<tspan id="tspan5040-9-1" style="font-size:65.00091553%;baseline-shift:sub">new </tspan>can make</tspan><tspan style="font-size:24px;font-style:normal;font-variant:normal;font-weight:400;font-stretch:normal;text-align:center;text-anchor:middle;font-family:Nimbus Sans L;-inkscape-font-specification:Nimbus Sans L" id="tspan7287-7" x="371.586" y="438.842">decisions alone</tspan></text></g></svg>